<svg width="34" height="41" viewBox="0 0 34 41" fill="none" xmlns="http://www.w3.org/2000/svg">
<path fill-rule="evenodd" clip-rule="evenodd" d="M13 1V3C13 3.55228 13.4477 4 14 4H20C20.5523 4 21 3.55228 21 3V1.66667V1C21 0.447715 20.5523 0 20 0H14C13.4477 0 13 0.447715 13 1ZM1 12L3.14577 14.1458C1.16504 16.9255 0 20.3267 0 24C0 33.3888 7.61116 41 17 41C26.3888 41 34 33.3888 34 24C34 20.3267 32.835 16.9255 30.8542 14.1458L33 12L30.5 9.50001L28.5105 11.4895C25.8875 9.07494 22.5032 7.4747 18.7586 7.08986V5.64906H15.2414V7.08986C11.4968 7.4747 8.11253 9.07494 5.48952 11.4895L3.5 9.50001L1 12ZM17 37C24.1797 37 30 31.1797 30 24C30 16.8203 24.1797 11 17 11C9.8203 11 4 16.8203 4 24C4 31.1797 9.8203 37 17 37ZM17.0426 25.9996C17.0285 25.9999 17.0142 26 17 26C15.8954 26 15 25.1046 15 24C15 22.8954 15.8954 22 17 22C18.1046 22 19 22.8954 19 24C19 24.1064 18.9917 24.2109 18.9757 24.3128L19.1304 24.6364L25 31.5909L24.6087 32L17.5652 26.2727L17.0426 25.9996Z" fill="#120000"/>
</svg>
